<svg width="1024" height="1024" viewBox="0 0 1024 1024" fill="none" xmlns="http://www.w3.org/2000/svg">
  <defs>
    <linearGradient id="rightBody" x1="602" y1="86" x2="624" y2="938" gradientUnits="userSpaceOnUse">
      <stop offset="0" stop-color="#7F8896"/>
      <stop offset="0.45" stop-color="#323A49"/>
      <stop offset="1" stop-color="#080B17"/>
    </linearGradient>
    <linearGradient id="rightRim" x1="776" y1="140" x2="858" y2="840" gradientUnits="userSpaceOnUse">
      <stop offset="0" stop-color="#AAB2BC" stop-opacity="0.9"/>
      <stop offset="1" stop-color="#4B5565" stop-opacity="0.8"/>
    </linearGradient>
    <linearGradient id="leftBody" x1="216" y1="338" x2="314" y2="886" gradientUnits="userSpaceOnUse">
      <stop offset="0" stop-color="#3E4656"/>
      <stop offset="0.5" stop-color="#1A1F2D"/>
      <stop offset="1" stop-color="#060914"/>
    </linearGradient>
  </defs>

  <path d="M514 84C463 145 443 214 450 281C458 356 491 420 521 478C554 542 568 611 556 687C543 764 497 833 422 888C466 913 518 928 574 928C764 928 918 774 918 584C918 440 832 334 760 246C711 186 668 135 644 84C622 105 600 120 574 132C551 143 530 125 514 84Z" fill="url(#rightBody)"/>

  <path d="M644 84C668 135 711 186 760 246C832 334 918 440 918 584C918 774 764 928 574 928C669 866 739 775 768 657C797 537 773 403 709 267C680 205 656 147 644 84Z" fill="url(#rightRim)" opacity="0.66"/>

  <path d="M264 332C183 410 136 518 130 637C123 786 214 900 357 924C340 890 334 853 336 815C341 733 383 672 433 615C484 556 501 490 484 415C467 345 421 280 343 250C346 287 333 314 264 332Z" fill="url(#leftBody)"/>

  <path d="M430 899C489 798 526 721 537 646C548 576 535 516 504 458C470 396 446 344 448 284C450 229 471 179 509 132C460 163 420 211 395 274C367 344 369 418 390 490C409 554 391 614 336 679C282 742 258 815 270 894C322 916 376 920 430 899Z" fill="white"/>
</svg>
